<svg id="Layer_1" data-name="Layer 1" xmlns="http://www.w3.org/2000/svg" viewBox="0 0 53 51"><title>Gekks-Icon-Ballet</title><path d="M47,36.3a10.5,10.5,0,0,0-1-.53A31.79,31.79,0,0,0,40.54,34a2.42,2.42,0,0,0-1.68.19,30.35,30.35,0,0,1-6,2.81,24.3,24.3,0,0,1-7.67.66c-5.56,0-10.77-6.39-18.18-6.87-.49-.21-.7-.12-.9.37a15,15,0,0,0-1.08,4.71,7.58,7.58,0,0,0,.81,4.35,4.07,4.07,0,0,1,.64,2.52.53.53,0,0,0,.54.57h8.88a.58.58,0,0,0,.58-.57c0-.36,0-.71,0-1.11h.32c1.61.17,3.23.3,4.83.55a70.14,70.14,0,0,0,7.28.76,66.21,66.21,0,0,0,8.3,0,27,27,0,0,0,5.16-.83,12.47,12.47,0,0,0,4.31-2,3.34,3.34,0,0,0,1.17-1.52A2,2,0,0,0,47,36.3ZM15.46,42.19c0,.07-.19.11-.29.11H7.9c-.25,0-.33-.06-.34-.32s.08-.35.35-.34h7.21A.35.35,0,0,1,15.46,42.19ZM47,38.25a2.18,2.18,0,0,1-.73,1,9.65,9.65,0,0,1-3.14,1.62,22.7,22.7,0,0,1-5.32,1,57.09,57.09,0,0,1-9.2,0c-2.49-.19-5-.52-7.44-.83a44.3,44.3,0,0,0-5.85-.47c-2.57,0-5.13,0-7.7,0a.54.54,0,0,1-.45-.24,6.3,6.3,0,0,1-1-3.15A13.24,13.24,0,0,1,6.93,32,.6.6,0,0,1,7,31.89a18.51,18.51,0,0,1,4.12.76c4.28,1.67,6.36,4,11,5.32,5.85,1.56,12.63-.33,14.67-1.55A12.75,12.75,0,0,1,40,34.9l.65.17a23.29,23.29,0,0,1-14.09,4.27h0c-5.4,0-8.47-1.93-11.19-3.63a14.68,14.68,0,0,0-4.17-2.07c-1.42-.35-2.81-.64-3.63-.81l-.79-.17-.19.76.82.18c.82.17,2.2.46,3.61.81a14.14,14.14,0,0,1,3.94,2c2.66,1.67,6,3.75,11.61,3.75h0a23.93,23.93,0,0,0,15-4.72l.1-.08a29.16,29.16,0,0,1,3.91,1.32,8.91,8.91,0,0,1,1.05.55A.9.9,0,0,1,47,38.25Z"/><path d="M48,17.55a1.57,1.57,0,0,0-.91-1l-.9-.31c-1.51-.51-3-1-4.41-1.53l.08-.19.06-.14,0-.15c-.39-1.33-4.66-2.85-6-3.31a4.2,4.2,0,0,0-2.48-1,2,2,0,0,0-.4,0,.83.83,0,0,0-.18-.2.84.84,0,0,0-.85-.11,1.59,1.59,0,0,0-.74.68,37,37,0,0,1-3.87-2.13L27,8l-.24.34a3.52,3.52,0,0,0-.6,2.44c.11.56.81,1.3,1.95,2.44a13.51,13.51,0,0,1,1.79,2.05c-.5.3-2.71.33-7.15-.75A104,104,0,0,1,6.21,8.73l-.4-.18L5.64,9A18.53,18.53,0,0,0,4.5,14.7c-.18,2.93.4,4.16.82,4.65a3.48,3.48,0,0,0-.19,1.52v.4l.4,0c2.41.12,8.26.4,10.46.4a3.5,3.5,0,0,0,.86,0l.3-.1V20.37c3.38.2,6.42.43,9,.66,1.88.17,3.91.25,6,.25,2.59,0,5.25-.13,7.7-.38,2-.21,6.83-.8,7.6-1.84A1.84,1.84,0,0,0,48,17.55ZM35.22,12.44a.71.71,0,0,1,.06-.14,2.23,2.23,0,0,1,.41-.53c.47.16,1.49.53,2.51,1,2,.86,2.58,1.38,2.75,1.61l0,.1a6,6,0,0,1-.61,1.11c-2.34-.87-4.86-2-5.1-2.53A.77.77,0,0,1,35.22,12.44Zm-.63-1.3.34.17a2.41,2.41,0,0,0-.64,1.24L34,12.4A1.53,1.53,0,0,1,34.59,11.14Zm-1.84.14a1.62,1.62,0,0,0,.24-.4.81.81,0,0,1,.37-.06,4.37,4.37,0,0,1,.63.09,2.66,2.66,0,0,0-.56,1.19,1.74,1.74,0,0,1-.69-.71.3.3,0,0,1,0-.07Zm-.94-.83c.2-.2.47-.26.6-.13s.07.39-.13.6-.47.26-.6.13S31.62,10.65,31.82,10.45ZM16.29,20.83c-1.35,0-6.16-.18-10.29-.39a2.44,2.44,0,0,1,.08-.66c.31,0,1.1.07,3,.17s4.32.21,7.17.37Zm30.55-2.27c-.26.35-2.6,1-7,1.49a74.79,74.79,0,0,1-13.57.12c-6.41-.58-13.39-.91-17.14-1.09-1.38-.07-2.81-.13-3-.15h0c-.26-.11-1-1.1-.77-4.16a19.59,19.59,0,0,1,.92-5C16.78,14.28,25,16.33,28.57,16.33h0a2.91,2.91,0,0,0,2-.48c.67-.67-.39-1.75-1.86-3.23a9.53,9.53,0,0,1-1.71-2,2.35,2.35,0,0,1,.25-1.41,40.71,40.71,0,0,0,3.77,2,.76.76,0,0,0,.28.44.78.78,0,0,0,.7.13c.43.94,2,1.56,2.54,1.75.81,1,4.56,2.47,5.71,2.89l.15.06.15-.06a2,2,0,0,0,.85-1c1.43.52,2.95,1,4.51,1.56l.06,0,.72.24a.76.76,0,0,1,.45.45A1.07,1.07,0,0,1,46.83,18.55Z"/></svg>