<svg id="Layer_1" data-name="Layer 1" xmlns="http://www.w3.org/2000/svg" viewBox="0 0 53 51"><defs><style>.cls-1{fill:none;stroke:#000;stroke-miterlimit:10;}</style></defs><title>Icon-sneakers</title><path d="M46.55,42.32a4.42,4.42,0,0,0-1.62-3.18,6.11,6.11,0,0,0-4.39-1,4.15,4.15,0,0,1-2.19,0c-.51-.25-1.05-.42-1.57-.63L35.68,37c-.08-.9-.48-1.58-1.71-.71-.25-.12-.5-.24-.74-.38l-.37-.22c0-.77-.23-1.32-1.39-.82l-.1-.06c-.28-1-.77-1.06-1.27-.78l-3-1.86-.81-.5c0-.73-.31-1.2-1.06-.94-.48-.76-1-.87-1.47-.62l-3.5-2.15A1,1,0,0,0,19,28a3.58,3.58,0,0,0-1,2.19,3.47,3.47,0,0,0,1.1,2.69c-.49.71-.94,1.46-1.49,2.14-1.12,1.41-2.47,2.38-4.42,2.08a9.15,9.15,0,0,1-5.15-2.51,1.35,1.35,0,0,0-.88-.36c-.38,0-.56.36-.64.74-.12.58-.23,1.16-.4,1.72a12.18,12.18,0,0,0-.6,3.68,7.65,7.65,0,0,1-.07,2,7.84,7.84,0,0,0,0,3.08,2.5,2.5,0,0,0,2.39,2.06c7.92,0,15.83,0,23.75,0a16,16,0,0,0,1.79-.08c1.66-.19,3.32-.36,5-.62a28.37,28.37,0,0,0,7.11-2.2,1.82,1.82,0,0,0,1.18-1.23v-.79A1,1,0,0,1,46.55,42.32Zm-2.13-2.6,0,.19L40.1,41.12l-.7-2.06A6.87,6.87,0,0,1,44.42,39.72Zm-5.15,1.54-1.47.26-.12-.4L39,40.56ZM28.59,34.11,28.16,34l-2-.8c0-.19.07-.39.1-.58C27,33.08,27.82,33.58,28.59,34.11Zm-4.13-2.65.59.36a7.29,7.29,0,0,1,0,.87l-1.55-.62c.21-.35.4-.67.56-.89Zm-5-2.76c.18-.24.33-.09.48,0l3.16,1.94a6.6,6.6,0,0,0-.72,1,2.37,2.37,0,0,0-2.84.45A2.5,2.5,0,0,1,19.48,28.7Zm.62,4.11a1.19,1.19,0,0,1,1.57-.48l.31.12c-.35.72-.6,1.36-.66,1.54a.64.64,0,0,0,0,.26.44.44,0,0,0,.49.48.53.53,0,0,0,.3-.08h0a.79.79,0,0,0,.27-.5h0c.18-.34.43-.81.69-1.29l1.88.74c-.08.58-.17,1.16-.24,1.54a.47.47,0,0,0-.1.32.5.5,0,1,0,1,0h0s.22-.62.42-1.42l.68.27,2.25.9a12,12,0,0,0-.69,1,.42.42,0,0,0-.32.46.48.48,0,0,0,.49.51.45.45,0,0,0,.5-.46v0c.22-.31.54-.77.86-1.17l2.09.83c-.08.35-.19.73-.3,1a.43.43,0,0,0-.29.48.49.49,0,0,0,1,.06h0a10.36,10.36,0,0,0,.44-1.24l2,.81a11.21,11.21,0,0,1,0,1.22.47.47,0,0,0-.11.33.58.58,0,0,0,.05.25v0h0a.52.52,0,0,0,.4.24c.31,0,.51-.17.51-.49,0,0,0,0,0-.07a9.77,9.77,0,0,0,.14-1.12l2.27.9c.48.19.78.42.72,1a5.86,5.86,0,0,1-3.69.65A40.92,40.92,0,0,1,22.3,36.91c-1.26-.54-2.48-1.15-3.7-1.73C19.13,34.34,19.6,33.57,20.1,32.82ZM6.44,39.34c.13-1,.4-1.92.62-2.88.1-.42.21-.84.33-1.29.34.28.68.61,1.05.87A10.38,10.38,0,0,0,13.15,38a5,5,0,0,0,4.26-1.5c.72-.71.73-.7,1.63-.24a48.83,48.83,0,0,0,11.55,4.26c1.45.32,2.94.46,4.42.66.52.07,1,.05,1.57.1.13,0,.25.13.37.2l0,.14-2.45.26c-1.25.12-2.49.23-3.74.34-.64.05-1.28.1-1.93.1l-12.53.08c-1.91,0-3.81,0-5.72,0-1.24,0-2.47-.16-3.71-.25-.31,0-.45-.16-.44-.5C6.44,40.85,6.34,40.09,6.44,39.34Zm-.29,5.11c0-.39,0-.79,0-1.19s.16-.39.46-.36c1.25.12,2.49.32,3.74.33q8,.05,16.1,0c1.88,0,3.77-.15,5.65-.26.77,0,1.53-.17,2.3-.25a2.88,2.88,0,0,1,.3,0L35,44.9a4.76,4.76,0,0,1-.61.1c-1.1,0-2.19.09-3.29.1q-11.39.1-22.77.17a11.41,11.41,0,0,1-1.69-.18C6.33,45,6.1,44.88,6.15,44.45Zm28.94,2c-.52.06-1,.15-1.57.16-3,0-6,.08-9,.09-5.53,0-11.06,0-16.58,0A1.74,1.74,0,0,1,6.52,46c2.19,0,4.36,0,6.53,0q6.71,0,13.42,0c1.47,0,2.93,0,4.39-.09,1.26,0,2.51-.11,3.77-.17h.45Zm10.34-2.75a28,28,0,0,1-6.07,2c-1.1.23-2.21.42-3.33.63l-.55-3.69,2-.28a28.21,28.21,0,0,0,7.14-1.74c.35-.15.51-.08.66.25a6.17,6.17,0,0,1,.52,2.27A.48.48,0,0,1,45.43,43.69Z"/><circle class="cls-1" cx="12.83" cy="40.79" r="0.65"/><circle class="cls-1" cx="16.12" cy="40.79" r="0.65"/><path d="M46.4,14.54a3.58,3.58,0,0,0-3.56-2.38c-.77,0-1.54,0-2.31-.07a1,1,0,0,1-.53-.22c-.66-.52-1.3-1.07-1.94-1.6-.15-.15-.25-.46-.43-.52s-.45.11-.77.21l-.2-.07c-.3-.12-.66-.12-.66-.63,0-.28-.47-.37-.73-.18a.84.84,0,0,1-1.19-.39.49.49,0,0,0-.77-.3A.8.8,0,0,1,32.19,8a.49.49,0,0,0-.78-.29,1,1,0,0,1-1.21-.47c-.09-.32-.45-.54-.68-.35-.48.38-.72.08-1-.25a13.61,13.61,0,0,0-5-4,2.17,2.17,0,0,0-2.43.31,2.58,2.58,0,0,0-.79,3.46,9.14,9.14,0,0,1-8.28,2,2.52,2.52,0,0,1-2.13-2,3.3,3.3,0,0,0-.38-.91A1.52,1.52,0,0,0,8.07,4.6,1.66,1.66,0,0,0,6.6,5.83c-.09.28-.17.57-.26.86a23.94,23.94,0,0,0-1.13,3.88,36.44,36.44,0,0,0,0,4.7,3,3,0,0,1,0,.46A13.8,13.8,0,0,0,5,17.1c0,.79,0,1.58,0,2.36-.07,1.16.4,1.76,1.72,1.76,8.55,0,17.09,0,25.64,0a45.32,45.32,0,0,0,9.21-.59,16.12,16.12,0,0,0,4.88-1.67,1,1,0,0,0,.6-.84A8.48,8.48,0,0,0,46.4,14.54Zm-.66,1.26-1.48.49a3.4,3.4,0,0,0-2.18-3.1C44.23,13,45.3,13.73,45.74,15.8Zm-2.46.76-1.59.28L41.09,14A2.3,2.3,0,0,1,43.28,16.56Zm-3.06-1.94c.17.75.32,1.5.49,2.31l-1.27.2-1.08-3.43c.54.19,1.08.37,1.6.58A.54.54,0,0,1,40.21,14.62ZM25.07,8.71,20,16s-1.36-.08-2.06-.17a.87.87,0,0,1-.78-.46,2.26,2.26,0,0,1,.65-3.06q3-2,6-3.89C23.92,8.34,25.07,8.71,25.07,8.71Zm2.06.72,1.93.72-4.4,6.3-2.23-.28Zm4,1.36,1.8.72-3.87,5.55L27,16.77Zm3.62,1.64.77.2c1.52.58,1.54.56,2.1,2.09.29.79.5,1.61.78,2.5a39.33,39.33,0,0,1-5.84.11H31.33Zm-6-4.53c-.07.36-.27.76.21.94s.62-.17.77-.53l1,.41c-.11.36-.3.74.18.9s.63-.15.76-.54l.89.35-.13.09c.11.26.16.64.36.76s.6-.09.78-.45l1,.34-.13.07c.08.23.1.56.26.68s.55.06.76-.23a.35.35,0,0,1,.31-.07c.27.08.53.19.81.3-.12.3-.27.63.14.81s.64-.1.82-.47A3.79,3.79,0,0,1,39.6,13C33.81,10.92,28,8.79,22.29,6.52a1.63,1.63,0,0,1,1.38-.4,6.88,6.88,0,0,1,1.51.35C26.38,6.92,27.57,7.41,28.78,7.9ZM22.38,3.24a1,1,0,0,1,.55,0,10.75,10.75,0,0,1,3.62,2.58c-1.77-.67-3.51-1.28-5.28-.1A1.68,1.68,0,0,1,22.38,3.24ZM6.21,12a2.71,2.71,0,0,1,3.16-.59,6.08,6.08,0,0,0,1.94.53A3.57,3.57,0,0,0,14.79,10a.92.92,0,0,1,.75-.45A9.6,9.6,0,0,0,19.7,8l1.57-1,1.51,1-.36.26-4.81,3.16a3.23,3.23,0,0,0-1.42,4.22,1.65,1.65,0,0,1,0,.22L6.18,15.49c-.06-1.05-.12-2.07-.16-3.09A.61.61,0,0,1,6.21,12Zm39.15,6.36a17.84,17.84,0,0,1-5.42,1.52,59.16,59.16,0,0,1-8.81.34H6.48c-.58,0-.61,0-.61-.62,0-1.05,0-2.1,0-3.1,1.52,0,2.95,0,4.38,0,2.78.09,5.57.16,8.35.35s5.41.54,8.12.79,5.45.65,8.18.66A33.72,33.72,0,0,0,45.11,17l.71-.22C46.18,17.58,46.06,18,45.36,18.33Z"/></svg>