<svg id="Layer_1" data-name="Layer 1" xmlns="http://www.w3.org/2000/svg" viewBox="0 0 53 51"><title>Icon-loafers</title><path d="M46.31,17.11a1.26,1.26,0,0,0-.29-.55.89.89,0,0,1-.27-.94,2.76,2.76,0,0,0-.84-2.5,1.11,1.11,0,0,0-1-.3c-1.26.11-2.53.24-3.8.26a14.2,14.2,0,0,1-5.31-.78,2.76,2.76,0,0,1-1.29-1A13.83,13.83,0,0,0,32,9.44c-.72-.67-1.55-1.23-2.36-1.86A2.57,2.57,0,0,0,30,7.23c.36-.47.24-.85-.34-1a2.24,2.24,0,0,0-1.14,0,4.52,4.52,0,0,1-2.57,0,3.27,3.27,0,0,0-2.52,0A8.93,8.93,0,0,0,21.86,7.8c-.23.27-.51.68-.85.7-1,.08-1.43-.11-2.69-.06-1.79.08-3.4,0-5.25.06-.81,0-2,.09-2.83.09a10.07,10.07,0,0,0-1.87.13,1.31,1.31,0,0,0-1,.68c-.15.37-.36.83-.49,1.21-.86,2.54-.3,4.38-.49,7a.67.67,0,0,0,.54.69,33.85,33.85,0,0,0,5.63,1.41,14.93,14.93,0,0,0,3.58,0,11.19,11.19,0,0,1,2.2.06,70.25,70.25,0,0,0,10.56,1.17,56.21,56.21,0,0,0,11.39-1.21,25.29,25.29,0,0,0,5.69-1.77A.58.58,0,0,0,46.31,17.11ZM30.67,9.35c.3.07.54.38.88.65,0,0,1.22,1.42,1.47,1.82a2.86,2.86,0,0,0,1.45,1.09,12.37,12.37,0,0,0,4.29.83c1.37,0,2.75,0,4.12-.08l.63,0a2.92,2.92,0,0,1-2,.77,25.79,25.79,0,0,1-6.62-.58c-1.07-.2-2.13-.47-3.2-.69-.32-.07-.47-.16-.27-.51a1.07,1.07,0,0,0,.11-1c-.19-.27-1.25-1.54-1.48-1.75C30.24,9.67,30.51,9.31,30.67,9.35ZM29.13,6.84a.17.17,0,0,1,.06.2,4.36,4.36,0,0,1-.55.15A.82.82,0,0,1,28.3,7,.51.51,0,0,1,29.13,6.84Zm-.4,1.34c.41.15.8.33,1.2.52,0,0,.08.09.15.18-.26.14-.56.4-.67.33a6.1,6.1,0,0,1-1-.8C28.55,8.34,28.68,8.17,28.74,8.19Zm-5.9-.61a2.07,2.07,0,0,1,2.44-1,18.76,18.76,0,0,1,2,.57c.34.19.92.32.94.63.06.59-.93,0-.93,0a3.06,3.06,0,0,0-2.06-.71,9.73,9.73,0,0,0-2.37.78C22.67,7.95,22.84,7.57,22.84,7.57ZM9.29,9c1.54.07,4.54-.14,6.08-.15s3,.08,4.6,0A23.93,23.93,0,0,1,8.81,9.2S9.29,9.08,9.29,9Zm-.78.58.84.25c3.53,1,7.13.41,10.7-.45.7-.17,1.46-.46,2.17-.66s1.16-.44,1.67-.63a3.59,3.59,0,0,1,1.43-.39,2.5,2.5,0,0,1,1.62.4c.08.07,0,0,.07.09a1.12,1.12,0,0,1-.32.18,1.65,1.65,0,0,1-.4,0,.65.65,0,0,0-.73.48.63.63,0,0,0,.35.8.64.64,0,0,0,.84-.21,2.09,2.09,0,0,1,.32-.4,1.13,1.13,0,0,1,1.54.53s0,.18-.08.18a2.56,2.56,0,0,1-.68.1.69.69,0,0,0-.79.47.62.62,0,0,0,.34.8.63.63,0,0,0,.84-.2,1.91,1.91,0,0,1,.26-.32.92.92,0,0,1,1.43.17c.06,0,1,.92.93,1.27a8.49,8.49,0,0,1-.55,1.2c0,.08-.21.1-.31.13a27.35,27.35,0,0,1-8.94.53l-1.34-.22-1.44-.24A63.26,63.26,0,0,1,8.19,10.64c-.38-.14-.25-.52-.25-1.05C7.94,9.38,8.17,9.51,8.5,9.62Zm-1,1.49c.27-1.19-.21,0,.93.36A63.7,63.7,0,0,0,17.71,14l3.08.51a24.32,24.32,0,0,0,8.77-.48,1.14,1.14,0,0,1,.28,0,5.48,5.48,0,0,1-1.37,1.74.73.73,0,0,1-.45.1A65.18,65.18,0,0,1,16.84,14.7l-.07,0c-.46-.07-.92-.17-1.37-.27h-.06A35.31,35.31,0,0,1,7.8,11.79C7.48,11.63,7.38,11.48,7.47,11.11Zm-.21,1.53c0-.18,0-.31.28-.19A36.42,36.42,0,0,0,14.7,15a14.45,14.45,0,0,1,1.67.39c.23,0,.5.07.83.14a63.93,63.93,0,0,0,11,1.14,1.13,1.13,0,0,0,.79-.31,21.89,21.89,0,0,0,1.65-2.18c.23-.35.4-.46.82-.36a36,36,0,0,0,8.86,1.33,10.84,10.84,0,0,0,2.56-.33A4.36,4.36,0,0,0,44.29,14c.21-.16.29-.18.42,0a2.35,2.35,0,0,1,.2,2.13.82.82,0,0,1-.54.36c-1.43.36-2.86.75-4.31,1A50.34,50.34,0,0,1,30,18.6a76.65,76.65,0,0,1-13.14-1.28l-3.84-.67c-1.86-.37-3.73-.75-5.58-1.14a.47.47,0,0,1-.3-.33C7.19,14.33,7.23,13.49,7.26,12.64Zm38,4.82A23,23,0,0,1,39,19.23c-3.09.42-6.2.68-9.3,1a3,3,0,0,1-.32,0A78.2,78.2,0,0,1,18.19,19a11,11,0,0,0-2.68.06c-.27,0-.82.11-1.29.16a13.94,13.94,0,0,1-1.68-.1c-1.75-.49-3.6-1-5.22-1.46-.14,0-.24-.29-.3-.47s0-.24,0-.36c.09-.79.05-.66.71-.52l4.71,1c.09,0,4.74.83,6.32,1.09A59.89,59.89,0,0,0,34,19.12a57.25,57.25,0,0,0,10-1.76c.34-.09.66-.25,1-.33a1.53,1.53,0,0,1,.54.08C45.44,17.23,45.36,17.41,45.23,17.46Z"/><path d="M11.24,11.34a.31.31,0,0,0,.17-.06,4.54,4.54,0,0,0,1.7.2,6.21,6.21,0,0,0,.74-.09.31.31,0,1,0-.06-.31A4.71,4.71,0,0,1,11.52,11a.31.31,0,1,0-.28.36Z"/><path d="M16.41,11.3a.31.31,0,0,0,.29-.14,5,5,0,0,0,2.77-.46.3.3,0,0,0,.15.06.31.31,0,1,0-.26-.36,4.71,4.71,0,0,1-2.61.44h0a.31.31,0,1,0-.31.45Z"/><path d="M45.73,37.85a.69.69,0,0,0-.46-.32c-1.93-.42-3.86-.8-5.79-1.23a22.4,22.4,0,0,1-4.28-1.13c-2.14-1-4.35-1.72-6.53-2.57a5.57,5.57,0,0,1-1.14-.66c-1.12-.79-2.2-1.64-3.35-2.38a1.33,1.33,0,0,0-2.17,1c-.11.67-.09,1.35-.16,2a1.66,1.66,0,0,1-.22.72,5.58,5.58,0,0,1-5,2.47A18.5,18.5,0,0,1,8.15,33.8a1.22,1.22,0,0,0-1.88.87A8.7,8.7,0,0,0,6,36.45C6,38.73,6,41,6,43.29a8.28,8.28,0,0,0,.13,1.24c.14.88.15.89,1.05.93l11,.45v0c1.27,0,2.53,0,3.8,0a86.1,86.1,0,0,0,17.55-1.4,16.3,16.3,0,0,0,6-2.17,1.4,1.4,0,0,0,.67-.95A6.37,6.37,0,0,0,45.73,37.85ZM23,30.57a.39.39,0,0,1,.59-.26c.51.27,1,.59,1.48.9l-.12,0a14.31,14.31,0,0,1,2.13,1.53,11.86,11.86,0,0,0,1.4.8l4.41,1.61a.9.9,0,0,1,.29.16,4.1,4.1,0,0,1,.58.28l.62.28v0c1.94,1,4.08,1.17,6.12,1.67,1.22.3,2.46.53,3.71.89-.44.2-.87.42-1.32.6A24.38,24.38,0,0,1,37,40.36a88.52,88.52,0,0,1-13.85.9l-.65,0a4.11,4.11,0,0,1,3-3.25c.71-.28,1.44-.56,1.3-1.38s-1-1.39-1.94-2.15-2.1-1.64-2-2.39h0c0-.14,0-.29.06-.43A6.91,6.91,0,0,1,23,30.57Zm-.32,2.93a9.63,9.63,0,0,0,1.42,1.3,16.34,16.34,0,0,0-2.25-.21A8,8,0,0,0,22.67,33.5ZM7.08,35.1c.14-.59.28-.65.83-.38a19.38,19.38,0,0,0,9.27,2,6.39,6.39,0,0,0,3.88-1.35c1.73,0,4,.22,4.61.8l.09.1,0,0h0a1.08,1.08,0,0,1,.26.47c0,.18-.12.28-.84.56a4.91,4.91,0,0,0-3.53,3.92h-.27l-6.66-.11a.65.65,0,0,1-.65-.44c-.28-.56-.64-1.08-.92-1.53h0a6.47,6.47,0,0,0-1.9-1.65c-.81-.39-1.61-.84-2.43-1.22C8.29,36,7.67,35.81,7,35.57,7,35.4,7,35.25,7.08,35.1ZM7,36.7c1.87,0,5.63,2.58,6.18,4.32L7,40.73Zm23.17,8.13c-7.67.34-15.32,0-23.07-.39l-.2-2.75A221.76,221.76,0,0,0,31.25,42,5,5,0,0,0,30.17,44.83ZM45.24,41.1a.88.88,0,0,1-.4.56,13,13,0,0,1-5,1.86c-2.8.46-5.61.8-8.42,1.19a.24.24,0,0,1-.09,0,2.84,2.84,0,0,1,2.31-2.91c1.65-.24,3.3-.42,4.94-.68A18.1,18.1,0,0,0,45,39l.18,0C45.21,39.7,45.27,40.4,45.24,41.1Z"/></svg>