<svg xmlns="http://www.w3.org/2000/svg" viewBox="0 0 61 56"><title>Icon-blister</title><g id="Intro"><path d="M24.24,20l0-.15a.33.33,0,0,1,0,0l0-.66.34.76Z"/><path d="M25.86,20.21l-.14-.11a1.3,1.3,0,0,0-1-.24h-.07l0-.05a2.18,2.18,0,0,1-.11-1.44l.18-.92,0,0c.2-.19.42-.35.64-.52a5.69,5.69,0,0,0,1.6-1.64l.41-.67-.18.76c-.42,1.79-.84,3.36-1.26,4.68Zm-.93-.62a1.56,1.56,0,0,1,.8.21c.35-1.12.7-2.42,1.05-3.87a7,7,0,0,1-1.27,1.17c-.21.16-.41.31-.6.48l-.16.84a2.33,2.33,0,0,0,0,1.18Z"/><path d="M23.25,21l0-.16A10.3,10.3,0,0,1,24,18.41a3,3,0,0,1,.56-.8l.61-.63-.72,1.37a3.72,3.72,0,0,0-.29,1.55V20l-.12.08a1.45,1.45,0,0,0-.39.85l0,.1h-.35Zm.66-1.75c-.08.25-.15.51-.2.76l.09-.11v0l.09,0A2.74,2.74,0,0,1,23.91,19.27Z"/><path d="M24,23l-.19,0-.2,0,.13-.16a1.52,1.52,0,0,0,.41-.85.84.84,0,0,0-.27-.76l-.11-.07-.1,0,0-.1a1.52,1.52,0,0,1,.34-.77l0,0c1-.38,1.48-.07,1.68.15l.05.05,0,.07c-.21.64-.41,1.19-.61,1.67l0,.06a1.61,1.61,0,0,1-.95.8Zm0-2.08.07,0a1.08,1.08,0,0,1,.37,1,1.55,1.55,0,0,1-.32.8h.06a1.39,1.39,0,0,0,.79-.69c.2-.48.39-1,.59-1.6-.19-.16-.59-.33-1.33-.05A1.36,1.36,0,0,0,24,20.87Z"/><path d="M22.87,23.45l.06-.34c0-.22.07-.45.1-.67l0-.25c0-.3.1-.64.15-1v-.08l.08,0a.63.63,0,0,1,.53.08.77.77,0,0,1,.23.69h0c0,.46-.53,1-.95,1.35Zm.58-2.11c-.05.31-.1.61-.14.89l0,.25,0,.32a1.72,1.72,0,0,0,.6-.93h0a.57.57,0,0,0-.13-.48A.35.35,0,0,0,23.45,21.34Z"/><path d="M21.36,28.87a1.3,1.3,0,0,1-.4-.06h0a1.3,1.3,0,0,1-.75-.63l0,0,.1-1.71h0l0-.23c.06-.31.43-.43.81-.55h.07l.26,0h0l.24,0a1.07,1.07,0,0,0,.72-.67l0,0,0,0,.09,0a.79.79,0,0,1,.5-.08.8.8,0,0,0,.26,0,1.23,1.23,0,0,1,.48.11c.22.09.49.17.73.24a2.19,2.19,0,0,1,.78.3.89.89,0,0,1,.15.76,1.45,1.45,0,0,1-.71,1L22,28.73A1.29,1.29,0,0,1,21.36,28.87Zm-.33-.3a1,1,0,0,0,.8-.06l2.84-1.45a1.2,1.2,0,0,0,.58-.83.64.64,0,0,0-.09-.54,3.93,3.93,0,0,0-.65-.22c-.26-.08-.54-.16-.77-.25a1,1,0,0,0-.39-.09A1,1,0,0,1,23,25a.58.58,0,0,0-.32.07h0a1.3,1.3,0,0,1-.87.79,1.18,1.18,0,0,1-.36,0l-.27,0-.35.12-.27.29-.11,1.76a1,1,0,0,0,.59.48Z"/><path d="M22.51,24.9l.07-.22a8.47,8.47,0,0,0,.26-1.07v0l0,0a5.57,5.57,0,0,0,.62-.54l.06-.06.08,0A1,1,0,0,0,24,23a.83.83,0,0,0,.25,0,1.14,1.14,0,0,0,.37-.16l.38-.24-.2.4a5.2,5.2,0,0,1-.83,1.28,6.62,6.62,0,0,1-.5.46l0,0h-.05a1.48,1.48,0,0,0-.61,0Zm.57-1.2c-.06.33-.13.6-.19.84a1.68,1.68,0,0,1,.44,0c.15-.13.29-.26.44-.41a4.23,4.23,0,0,0,.62-.9l-.1,0a1.19,1.19,0,0,1-.32,0,1.24,1.24,0,0,1-.33-.06A6,6,0,0,1,23.08,23.7Z"/><path d="M43.39,3.61l0,.05c-.05.11-5,11.11-5.91,14.74s-3.21,13.9-3.44,16a27,27,0,0,1-1.83,5.13,34.21,34.21,0,0,0-2.13,6c-.29,1.77,1.47,2.18,3,2.55,1,.24,2,.47,2.14,1A1,1,0,0,1,35,50c-.91,1.16-3.92,2.32-7.73,2.17h0A3.45,3.45,0,0,1,25.84,52a4.65,4.65,0,0,1-2.55-2.32c-.8-1.48-.72-3.08-.63-4.93a20.55,20.55,0,0,0-.4-6.16,11.13,11.13,0,0,0-2.91-5.07c-1.12-1.26-2-2.26-1.64-4a3.64,3.64,0,0,1,2.39-2.76L20,28.23v0h0a1.51,1.51,0,0,0,2,.66l2.84-1.45a1.67,1.67,0,0,0,.79-1.14,1.1,1.1,0,0,0-.14-.9,1.82,1.82,0,0,0-.88-.38L24,24.85l-.13,0-.13,0,.33-.31a3.86,3.86,0,0,0,.49-.66h0c1.16-1.89,2.24-5.94,3-9.21a93.88,93.88,0,0,0,1.71-9.49V5L29,5v.06c-.06.84-.57,4.11-1.33,7.74h0v.06a5.42,5.42,0,0,1-2.36,3.89,4.22,4.22,0,0,0-1.45,1.58,15,15,0,0,0-.93,3.9,12.55,12.55,0,0,1-.57,2.66h0v0h0a.86.86,0,0,1-.56.53,1.7,1.7,0,0,1-1.2-.37,1.22,1.22,0,0,0,0-.33,3.9,3.9,0,0,1,.11-.81,5.26,5.26,0,0,0,.15-1.5A10.79,10.79,0,0,1,21,19.31l.1-.56a15.8,15.8,0,0,0,0-3.13,14,14,0,0,1,0-1.5v-.06l-.33,0v.06a14.08,14.08,0,0,0,0,1.54c0,.24,0,.49,0,.74a3.1,3.1,0,0,1-2.13-1.32l0,0-.28.18,0,0a3.36,3.36,0,0,0,2.43,1.48,13.33,13.33,0,0,1,0,1.51,2.72,2.72,0,0,0-2.31-.76h-.11v.34h.13c1.15,0,1.92.28,2.23.93l-.1.5c0,.22-.09.45-.12.68a2.84,2.84,0,0,0-1.35.05l-.05,0,.09.32.05,0a2.33,2.33,0,0,1,1.21,0,11.31,11.31,0,0,0-.07,2.22,5,5,0,0,1-.14,1.41l0,.23a13.6,13.6,0,0,0-.91-1.4,9.89,9.89,0,0,1-.87-1.35,8.82,8.82,0,0,1-.85-3.86c0-.68-.12-1.22-.19-1.66-.14-1-.22-1.43.31-2a41.56,41.56,0,0,1,3.49-3.35A37.46,37.46,0,0,0,23.9,7.89,9.43,9.43,0,0,0,25.77,4a11.34,11.34,0,0,1,.38-1.17l0-.05-.31-.13,0,.05a11.52,11.52,0,0,0-.4,1.21,9.15,9.15,0,0,1-1.8,3.73,37.25,37.25,0,0,1-2.71,2.57,41.77,41.77,0,0,0-3.51,3.38c-.63.72-.54,1.31-.39,2.3.06.43.15,1,.19,1.62a9.09,9.09,0,0,0,.88,4,10.08,10.08,0,0,0,.9,1.4,7.6,7.6,0,0,1,1.11,1.89,2.62,2.62,0,0,0,0,.37v.07l.08.06a2.87,2.87,0,0,0,.53.32c-.35.16-.66.36-.63.75a4,4,0,0,0-2.73,3.06c-.41,1.87.58,3,1.72,4.26a10.7,10.7,0,0,1,2.84,4.92,20.27,20.27,0,0,1,.39,6.06c-.09,1.9-.17,3.54.67,5.1a4.61,4.61,0,0,0,4.26,2.7h.62c3.65,0,6.47-1.16,7.37-2.32a1.33,1.33,0,0,0,.31-1.2c-.21-.75-1.27-1-2.39-1.26-1.47-.35-3-.71-2.76-2.17a34.13,34.13,0,0,1,2.11-5.91h0l-.05,0,.05,0a26.89,26.89,0,0,0,1.85-5.22c.22-2.08,2.55-12.35,3.43-16S43.63,3.91,43.68,3.79l0-.05ZM25.07,22l0,0a1.5,1.5,0,0,1-.87.75.77.77,0,0,1-.33,0,1.64,1.64,0,0,0,.44-.92A1,1,0,0,0,24,21l-.14-.08a1.43,1.43,0,0,1,.3-.71c.91-.35,1.36-.08,1.55.12C25.48,21,25.28,21.52,25.07,22Zm-.75-2.26,0,0h0Zm.46-2.24c.2-.18.42-.35.64-.52a5.85,5.85,0,0,0,1.62-1.67c-.39,1.64-.81,3.26-1.26,4.67a1.43,1.43,0,0,0-1.09-.27,2.09,2.09,0,0,1-.08-1.34Zm-.71.94a2.87,2.87,0,0,1,.53-.77l-.31.6a3.82,3.82,0,0,0-.3,1.62l0,0,0,0h0a1.55,1.55,0,0,0-.44.92h-.1A10.22,10.22,0,0,1,24.08,18.46Zm-.9,3.81c0-.32.1-.68.16-1a.52.52,0,0,1,.43.06.67.67,0,0,1,.18.58c0,.43-.57,1-.9,1.26C23.09,22.85,23.14,22.56,23.18,22.27ZM23,23.63a5.93,5.93,0,0,0,.63-.55,1.09,1.09,0,0,0,.36.08,1.11,1.11,0,0,0,.29,0,1.27,1.27,0,0,0,.41-.17,5.08,5.08,0,0,1-.81,1.25,6.24,6.24,0,0,1-.49.45,1.58,1.58,0,0,0-.66.05A8.57,8.57,0,0,0,23,23.63Zm-2.53,2.7a.4.4,0,0,1,0-.05l.05-.06,0,0c0-.23.32-.33.73-.46h0l.28,0h.05a1.15,1.15,0,0,0,.27,0,1.19,1.19,0,0,0,.8-.74h0l.07,0a.68.68,0,0,1,.41-.07.9.9,0,0,0,.29.05,1.09,1.09,0,0,1,.44.1c.23.09.51.18.76.25a2.75,2.75,0,0,1,.7.26.77.77,0,0,1,.12.65,1.32,1.32,0,0,1-.64.92L21.9,28.61a1.18,1.18,0,0,1-1.58-.5Z"/><path d="M27.87,52.63h-.63a4.7,4.7,0,0,1-4.36-2.77c-.86-1.59-.78-3.25-.69-5.17a20.17,20.17,0,0,0-.39-6A10.59,10.59,0,0,0,19,33.79c-1.16-1.31-2.16-2.44-1.74-4.37A4.11,4.11,0,0,1,20,26.3a.82.82,0,0,1,.48-.67,2.69,2.69,0,0,1-.33-.22L20,25.3l0-.12a2.81,2.81,0,0,1,0-.36A7.8,7.8,0,0,0,18.9,23,10.32,10.32,0,0,1,18,21.57a9.18,9.18,0,0,1-.89-4c0-.65-.12-1.17-.18-1.59-.15-1-.25-1.66.41-2.42a41.91,41.91,0,0,1,3.52-3.39,37,37,0,0,0,2.7-2.56A9,9,0,0,0,25.33,3.9a11.79,11.79,0,0,1,.4-1.22l.07-.17.54.23-.07.17A11.19,11.19,0,0,0,25.89,4,9.57,9.57,0,0,1,24,8a37.64,37.64,0,0,1-2.75,2.6,41.35,41.35,0,0,0-3.47,3.33c-.49.55-.42,1-.28,1.93.07.45.15,1,.19,1.67a8.69,8.69,0,0,0,.84,3.82,9.73,9.73,0,0,0,.85,1.32c.27.38.54.77.76,1.13a4.72,4.72,0,0,0,.12-1.28,11.64,11.64,0,0,1,.05-2.14,2.45,2.45,0,0,0-1,.07l-.17.05-.16-.56.17-.05a3.19,3.19,0,0,1,1.29-.09c0-.18.07-.37.1-.55l.09-.46c-.3-.58-1-.87-2.09-.82h-.27l0-.58h.22a3.1,3.1,0,0,1,2.21.59c0-.31,0-.67,0-1.11a3.48,3.48,0,0,1-2.41-1.53l-.1-.15.5-.32.1.15a3,3,0,0,0,1.89,1.25c0-.19,0-.37,0-.54v-.05a14.12,14.12,0,0,1,0-1.56l0-.18.58,0,0,.18a13.67,13.67,0,0,0,0,1.47,16.12,16.12,0,0,1,0,3.17l-.1.56a10.7,10.7,0,0,0-.24,3.13A5.38,5.38,0,0,1,20.69,24a3.83,3.83,0,0,0-.11.79,1.13,1.13,0,0,1,0,.26,1.55,1.55,0,0,0,1,.31.73.73,0,0,0,.46-.43v-.1l.06,0a13.12,13.12,0,0,0,.54-2.59,15,15,0,0,1,.94-3.94,4.33,4.33,0,0,1,1.48-1.62,5.31,5.31,0,0,0,2.32-3.82l0-.17h0c.75-3.58,1.25-6.76,1.3-7.6l0-.18.58,0v.18a94.37,94.37,0,0,1-1.71,9.51c-.71,3.13-1.8,7.25-3,9.2l0,.05-.07,0a3.86,3.86,0,0,1-.49.65l-.18.18.06,0,.63.18a1.88,1.88,0,0,1,1,.42,1.22,1.22,0,0,1,.16,1,1.79,1.79,0,0,1-.85,1.23L22.1,29a1.61,1.61,0,0,1-.74.18,1.63,1.63,0,0,1-1.46-.89l0,0v0L20,27a3.43,3.43,0,0,0-2.13,2.58c-.36,1.64.51,2.62,1.61,3.85a11.23,11.23,0,0,1,2.94,5.12,20.66,20.66,0,0,1,.4,6.19c-.09,1.83-.16,3.41.62,4.86a4.53,4.53,0,0,0,2.48,2.26,3.32,3.32,0,0,0,1.33.2h0c3.77.14,6.74-1,7.63-2.13a.88.88,0,0,0,.23-.78c-.14-.49-1.1-.72-2-.94-1.53-.36-3.42-.81-3.12-2.7a34,34,0,0,1,2.12-6v0a27,27,0,0,0,1.82-5.1c.23-2.11,2.56-12.41,3.44-16S43,4.06,43.25,3.61l.08-.17.53.24-.08.17c-.2.45-5,11.13-5.88,14.65s-3.2,13.85-3.43,15.94a26,26,0,0,1-1.81,5.14l.06,0-.12.12,0,.09a33.33,33.33,0,0,0-2.05,5.77c-.22,1.34,1.18,1.68,2.67,2,1.15.27,2.24.53,2.48,1.35a1.44,1.44,0,0,1-.33,1.31C34.42,51.44,31.56,52.63,27.87,52.63Zm-.63-.26h.63c3.61,0,6.39-1.14,7.27-2.27A1.21,1.21,0,0,0,35.43,49c-.19-.68-1.21-.92-2.29-1.18-1.46-.35-3.11-.74-2.86-2.31a34.05,34.05,0,0,1,2.11-5.93v0a26.79,26.79,0,0,0,1.84-5.17c.22-2.09,2.55-12.37,3.43-16C38.51,15,43.09,4.79,43.53,3.81l-.08,0c-.44,1-5,11.19-5.87,14.65s-3.21,13.88-3.44,16a26.91,26.91,0,0,1-1.84,5.16v0a34.07,34.07,0,0,0-2.11,5.92c-.27,1.65,1.35,2,2.92,2.41,1.06.25,2.05.49,2.23,1.12a1.11,1.11,0,0,1-.27,1c-.88,1.12-3.66,2.23-7.2,2.23h-.63a3.57,3.57,0,0,1-1.44-.21,4.78,4.78,0,0,1-2.62-2.38c-.81-1.51-.74-3.12-.65-5a20.41,20.41,0,0,0-.39-6.12,11,11,0,0,0-2.88-5c-1.15-1.29-2.05-2.31-1.67-4.08A3.78,3.78,0,0,1,20,26.65l.19-.09-.1,1.66a1.39,1.39,0,0,0,1.23.74A1.36,1.36,0,0,0,22,28.8l2.84-1.45a1.54,1.54,0,0,0,.72-1.06,1,1,0,0,0-.11-.8,1.83,1.83,0,0,0-.82-.34L24,25l-.46-.16.16-.14.32-.31a3.68,3.68,0,0,0,.48-.63h0c1.17-1.9,2.26-6,3-9.17,1-4.26,1.61-8.3,1.7-9.4h-.09c-.08.95-.58,4.13-1.33,7.68l0,.12h0a5.5,5.5,0,0,1-2.4,3.91,4.13,4.13,0,0,0-1.41,1.53A14.83,14.83,0,0,0,23,22.24a12.75,12.75,0,0,1-.58,2.69l0,.07a1,1,0,0,1-.64.59,1.81,1.81,0,0,1-1.3-.39l-.05,0V25.1a1.11,1.11,0,0,0,0-.29,3.82,3.82,0,0,1,.11-.86,5.14,5.14,0,0,0,.14-1.47,10.91,10.91,0,0,1,.24-3.19l.11-.56a15.83,15.83,0,0,0,0-3.1c0-.6-.05-1.12,0-1.45h-.08c0,.34,0,.85,0,1.44v.07c0,.22,0,.45,0,.69v.14h-.14a3.16,3.16,0,0,1-2.19-1.33l-.07,0a3.21,3.21,0,0,0,2.29,1.37h.11v.11a13.46,13.46,0,0,1,0,1.53l0,.3-.19-.23a2.61,2.61,0,0,0-2.2-.71v.09c1.21-.05,2,.3,2.34,1l0,0-.1.54c0,.22-.09.45-.12.68l0,.14-.14,0a2.62,2.62,0,0,0-1.22,0l0,.08a2.37,2.37,0,0,1,1.22,0l.09,0v.1a11.18,11.18,0,0,0-.07,2.2,5.14,5.14,0,0,1-.14,1.43l0,.24-.07.35-.17-.32a13.36,13.36,0,0,0-.9-1.38,10,10,0,0,1-.88-1.38,8.91,8.91,0,0,1-.86-3.91c0-.67-.12-1.2-.19-1.63-.15-1-.23-1.5.33-2.14a41.39,41.39,0,0,1,3.5-3.36,36.94,36.94,0,0,0,2.73-2.58A9.33,9.33,0,0,0,25.65,4c.13-.44.24-.81.36-1.12l-.08,0c-.13.32-.24.7-.37,1.13a9.25,9.25,0,0,1-1.82,3.78c-.69.76-1.68,1.64-2.72,2.58a41.71,41.71,0,0,0-3.5,3.36c-.59.67-.51,1.21-.36,2.2.07.45.15,1,.19,1.64a9,9,0,0,0,.87,3.94,10.23,10.23,0,0,0,.89,1.38,7.63,7.63,0,0,1,1.13,1.93,3.11,3.11,0,0,0,0,.38v0l0,0a2.69,2.69,0,0,0,.5.31l.24.12-.25.11c-.42.19-.58.37-.56.63v.09l-.08,0a3.94,3.94,0,0,0-2.66,3c-.39,1.8.57,2.89,1.69,4.15a10.81,10.81,0,0,1,2.87,5,20.39,20.39,0,0,1,.39,6.09c-.09,1.89-.17,3.51.66,5A4.45,4.45,0,0,0,27.24,52.37Zm-5.87-23.5a1.3,1.3,0,0,1-1.15-.69l0,0,.1-1.71h0l0-.23c.06-.31.43-.43.81-.55h.07l.26,0h0l.24,0a1.07,1.07,0,0,0,.72-.67l0,0,0,0,.09,0a.79.79,0,0,1,.5-.08.8.8,0,0,0,.26,0,1.23,1.23,0,0,1,.48.11c.22.09.49.17.73.24a2.19,2.19,0,0,1,.78.3.89.89,0,0,1,.15.76,1.45,1.45,0,0,1-.71,1L22,28.73A1.29,1.29,0,0,1,21.36,28.87Zm-.92-.78a1,1,0,0,0,.59.48,1,1,0,0,0,.8-.06l2.84-1.45a1.2,1.2,0,0,0,.58-.83.64.64,0,0,0-.09-.54,3.93,3.93,0,0,0-.65-.22c-.26-.08-.54-.16-.77-.25a1,1,0,0,0-.39-.09A1,1,0,0,1,23,25a.58.58,0,0,0-.32.07h0a1.3,1.3,0,0,1-.87.79,1.18,1.18,0,0,1-.36,0l-.27,0-.35.12-.27.3Zm2.06-3.19.07-.22a8.47,8.47,0,0,0,.26-1.07v0l0,0a5.57,5.57,0,0,0,.62-.54l.06-.06.08,0A1,1,0,0,0,24,23a.83.83,0,0,0,.25,0,1.14,1.14,0,0,0,.37-.16l.38-.24-.2.4a5.2,5.2,0,0,1-.83,1.28,6.62,6.62,0,0,1-.5.46l0,0h-.05a1.48,1.48,0,0,0-.61,0Zm.57-1.2c-.06.33-.13.6-.19.84a1.68,1.68,0,0,1,.44,0c.15-.13.29-.26.44-.41a4.23,4.23,0,0,0,.62-.9l-.1,0a1.19,1.19,0,0,1-.32,0,1.24,1.24,0,0,1-.33-.06A6,6,0,0,1,23.08,23.7Zm-.21-.25.06-.34c0-.22.07-.45.1-.67l0-.25c0-.3.1-.64.15-1v-.08l.08,0a.63.63,0,0,1,.53.08.77.77,0,0,1,.23.69c0,.46-.53,1-.95,1.35Zm.58-2.11c-.05.31-.1.61-.14.89l0,.25,0,.32a1.72,1.72,0,0,0,.6-.93.57.57,0,0,0-.13-.48A.35.35,0,0,0,23.45,21.34ZM24,23l-.19,0-.2,0,.13-.16a1.52,1.52,0,0,0,.41-.85.84.84,0,0,0-.27-.76l-.11-.07-.1,0,0-.1a1.52,1.52,0,0,1,.34-.77l0,0c1-.38,1.48-.07,1.68.15l.05.05,0,.07c-.21.64-.41,1.19-.61,1.67v0L25.07,22l.1.08,0,0a1.61,1.61,0,0,1-.95.8Zm0-2.08.07,0a1.08,1.08,0,0,1,.37,1,1.55,1.55,0,0,1-.32.8h.06a1.39,1.39,0,0,0,.79-.69l.13,0L25,22c.19-.46.38-1,.58-1.58-.19-.16-.58-.33-1.33-.05A1.36,1.36,0,0,0,24,20.87Zm-.72.15,0-.16A10.3,10.3,0,0,1,24,18.41h0a3,3,0,0,1,.56-.8l.61-.63-.09.17.3-.23a5.69,5.69,0,0,0,1.6-1.64l.41-.67-.18.76c-.42,1.79-.84,3.36-1.26,4.68l-.05.17-.14-.11a1.3,1.3,0,0,0-1-.24h-.07l0-.05a2.18,2.18,0,0,1-.11-1.44l.06-.29-.14.26a3.58,3.58,0,0,0-.23.78l.34.75-.28.09,0-.15a.33.33,0,0,1,0,0l0-.63a2.58,2.58,0,0,0-.05.75V20l-.12.08a1.45,1.45,0,0,0-.39.85l0,.1h-.35Zm.66-1.75c-.08.25-.15.51-.2.76l.09-.11v0l.09,0A2.75,2.75,0,0,1,23.91,19.27Zm1,.33a1.56,1.56,0,0,1,.8.21c.35-1.12.7-2.42,1.05-3.87a7,7,0,0,1-1.27,1.17c-.21.16-.41.31-.6.48l-.16.84a2.33,2.33,0,0,0,0,1.18Z"/></g></svg>