<svg xmlns="http://www.w3.org/2000/svg" viewBox="0 0 53 51"><defs><style>.cls-1{fill:#222829;}</style></defs><title>Icon-woman</title><g id="Intro"><rect class="cls-1" x="16.36" y="40.92" width="1.27" height="5.08"/><rect class="cls-1" x="36.69" y="40.92" width="1.27" height="5.08"/><path class="cls-1" d="M27.16,25.66c-6.36,0-6.36-6.44-6.36-9.53V14.86A3.18,3.18,0,0,1,24,11.68V13a1.91,1.91,0,0,0-1.91,1.91v1.27c0,5.1.85,8.26,5.08,8.26,4.06,0,5-2.91,5.08-7.64-5.69-.32-7.62-4.86-7.62-7h1.27c0,1.53,1.66,5.72,7,5.72a.64.64,0,0,1,.64.64C33.52,19.22,33.52,25.66,27.16,25.66Z"/><path class="cls-1" d="M31,26.3V25a22.16,22.16,0,0,0,5-1.06,41.27,41.27,0,0,1-1.15-7.84V12.32A5.73,5.73,0,0,0,29.07,6.6H25.25a5.73,5.73,0,0,0-5.72,5.72v3.81A41.27,41.27,0,0,1,18.38,24a22.18,22.18,0,0,0,5,1.06V26.3A26.3,26.3,0,0,1,17.43,25a.63.63,0,0,1-.42-.76,44.15,44.15,0,0,0,1.25-8.11V12.32a7,7,0,0,1,7-7h3.81a7,7,0,0,1,7,7v3.81a44.11,44.11,0,0,0,1.25,8.11.63.63,0,0,1-.42.76A26.3,26.3,0,0,1,31,26.3Z"/><path class="cls-1" d="M27.16,44.73a.64.64,0,0,1-.62-.48L22.73,29.64a.63.63,0,0,1,0-.16V23.76H24v5.64l3.18,12.18,3.18-12.18V23.76h1.27v5.72a.63.63,0,0,1,0,.16L27.78,44.25A.64.64,0,0,1,27.16,44.73Z"/><path class="cls-1" d="M27.16,31.38c-2.49,0-4.45-1.4-4.45-3.18H24c0,1,1.46,1.91,3.18,1.91s3.18-.87,3.18-1.91h1.27C31.61,30,29.65,31.38,27.16,31.38Z"/><path class="cls-1" d="M26.63,44.44l-5.53-8.61H17.63a.64.64,0,0,1-.52-1l5.72-8.26,1,.72-5,7.26h2.6a.64.64,0,0,1,.53.29l5.72,8.9Z"/><path class="cls-1" d="M27.69,44.44l-1.07-.69,5.72-8.9a.64.64,0,0,1,.53-.29h2.6l-5-7.26,1-.72,5.72,8.26a.64.64,0,0,1-.52,1H33.23Z"/><path class="cls-1" d="M44.32,46H43V39c0-3.33-1.48-5.12-5.29-6.39l-.08,0L32.6,30l.57-1.14,5,2.52c4.28,1.44,6.11,3.71,6.11,7.58Z"/><path class="cls-1" d="M11.27,46H10V39c0-3.87,1.83-6.14,6.11-7.58l5-2.52L21.72,30l-5.17,2.58c-3.8,1.27-5.29,3.06-5.29,6.39Z"/></g></svg>