<svg xmlns="http://www.w3.org/2000/svg" viewBox="0 0 53 51"><defs><style>.cls-1{fill:#222829;}</style></defs><title>Icon-man</title><g id="Intro"><path class="cls-1" d="M43.32,45.68H42V36.14c0-2.95-2-4.86-6.56-6.39l-1.91-.64.4-1.21,1.91.64c3.46,1.15,7.43,3.06,7.43,7.59Z"/><rect class="cls-1" x="29.34" y="23.43" width="1.27" height="3.18"/><path class="cls-1" d="M10.27,45.68H9V36.14c0-4.54,4-6.44,7.43-7.59l1.91-.64.4,1.21-1.91.64c-4.6,1.53-6.56,3.44-6.56,6.39Z"/><rect class="cls-1" x="21.71" y="23.43" width="1.27" height="3.18"/><rect class="cls-1" x="15.36" y="40.59" width="1.27" height="5.08"/><rect class="cls-1" x="35.69" y="40.59" width="1.27" height="5.08"/><path class="cls-1" d="M26.16,25.34c-2.66,0-6.86-2.18-7-8l-.45-.45a.64.64,0,0,1-.19-.45V13.9a.64.64,0,0,1,.28-.53l1.91-1.27a.64.64,0,0,1,.35-.11h4.19L27,10.27a.64.64,0,0,1,.73-.12l3.81,1.91.07,0,1.91,1.27a.64.64,0,0,1,.28.53v2.54a.64.64,0,0,1-.19.45l-.45.45C33,23.16,28.82,25.34,26.16,25.34ZM19.8,16.18l.45.45a.64.64,0,0,1,.19.45c0,2.7,1.55,7,5.72,7s5.72-4.29,5.72-7a.64.64,0,0,1,.19-.45l.45-.45V14.24l-1.59-1.06-3.37-1.68L26,13.08a.64.64,0,0,1-.45.19H21.27l-1.46,1Z"/><path class="cls-1" d="M33.6,14.35l-.9-.9.45-.45V10.08a2.54,2.54,0,0,0-2.54-2.54H26.8a.64.64,0,0,1-.28-.07L24.25,6.35,22,7.48a.64.64,0,0,1-.73-.12l-.7-.7L19.17,9v4l.45.45-.9.9-.64-.64a.64.64,0,0,1-.19-.45V8.81A.63.63,0,0,1,18,8.49L19.9,5.31a.64.64,0,0,1,1-.12l.95.95L24,5.07a.64.64,0,0,1,.57,0l2.41,1.2h3.66a3.82,3.82,0,0,1,3.81,3.81v3.18a.64.64,0,0,1-.19.45Z"/><path class="cls-1" d="M28.07,34.87H24.25a.64.64,0,0,1-.45-.19l-6.36-6.36a.64.64,0,0,1,.17-1L20.16,26a.64.64,0,0,1,.28-.07H23a.63.63,0,0,1,.52.27L26.16,30l2.66-3.72a.63.63,0,0,1,.52-.27h2.54a.64.64,0,0,1,.28.07l2.54,1.27a.64.64,0,0,1,.17,1l-6.36,6.36A.64.64,0,0,1,28.07,34.87ZM24.52,33.6H27.8l5.55-5.55-1.62-.81H29.66l-3,4.18a.66.66,0,0,1-1,0l-3-4.18H20.59L19,28.05Z"/></g></svg>