<svg id="Layer_1" data-name="Layer 1" xmlns="http://www.w3.org/2000/svg" viewBox="0 0 682 322"><defs><style>.cls-1{fill:#d8d8d8;}.cls-1,.cls-2,.cls-3{stroke:#fff;stroke-miterlimit:10;}.cls-2{fill:#f2f2f2;}.cls-3{fill:#e6e6e6;}.cls-4{font-size:25.2px;font-family:Montserrat-Bold, Montserrat;font-weight:700;}.cls-5,.cls-7{font-size:27.81px;fill:#333;font-family:Montserrat-Light, Montserrat;}.cls-6,.cls-7{letter-spacing:-0.16em;}.cls-8{letter-spacing:0em;}.cls-9{letter-spacing:-0.02em;}</style></defs><title>Artboard 1</title><rect class="cls-1" x="223.75" y="15.29" width="147.75" height="53.78"/><rect class="cls-1" x="371.5" y="15.29" width="147.75" height="53.78"/><rect class="cls-1" x="519.25" y="15.29" width="147.75" height="53.78"/><rect class="cls-1" x="15" y="69.08" width="147.75" height="119.92"/><rect class="cls-2" x="223.75" y="69.08" width="147.75" height="59.92"/><rect class="cls-2" x="371.5" y="69.08" width="147.75" height="59.92"/><rect class="cls-2" x="519.25" y="69.08" width="147.75" height="59.92"/><rect class="cls-2" x="223.75" y="188.86" width="147.75" height="60.14"/><rect class="cls-2" x="371.5" y="188.86" width="147.75" height="60.14"/><rect class="cls-2" x="519.25" y="188.86" width="147.75" height="60.14"/><rect class="cls-3" x="223.75" y="248.86" width="147.75" height="60.14"/><rect class="cls-3" x="371.5" y="248.86" width="147.75" height="60.14"/><rect class="cls-3" x="519.25" y="248.86" width="147.75" height="60.14"/><text class="cls-4" transform="translate(260.19 50.27)">small</text><text class="cls-4" transform="translate(53.93 137.41)">mens</text><text class="cls-4" transform="translate(395.55 50.27)">medium</text><text class="cls-4" transform="translate(561.7 52)">large</text><text class="cls-5" transform="translate(254.44 107.04)">6.5 - 8</text><text class="cls-5" transform="translate(254.44 227.26)">5 - 6.5</text><text class="cls-5" transform="translate(403.16 228.26)">7 - 8.5</text><text class="cls-5" transform="translate(542.03 227.26)">9 - 11.5</text><text class="cls-5" transform="translate(248.63 288.26)">35 - 37</text><text class="cls-5" transform="translate(397.35 289.26)">38 - 39</text><text class="cls-5" transform="translate(544.79 288.26)">40 - 42</text><text class="cls-5" transform="translate(396.81 108.05)">8.5 - <tspan class="cls-6" x="66.65" y="0">1</tspan><tspan x="79.36" y="0">1</tspan></text><text class="cls-7" transform="translate(559.4 110.5)">1<tspan class="cls-8" x="12.71" y="0">1.5+</tspan></text><rect class="cls-3" x="223.75" y="129.08" width="147.75" height="59.92"/><rect class="cls-3" x="371.5" y="129.08" width="147.75" height="59.92"/><rect class="cls-3" x="519.25" y="129.08" width="147.75" height="59.92"/><text class="cls-5" transform="translate(248.63 167.04)">39 - 41</text><text class="cls-5" transform="translate(397.35 168.05)">42 - 44</text><text class="cls-5" transform="translate(568.52 170.5)">44+</text><rect class="cls-2" x="163" y="69" width="61" height="60.5"/><rect class="cls-3" x="163" y="129.5" width="61" height="59"/><text class="cls-4" transform="translate(175.58 108.41)">US</text><text class="cls-4" transform="translate(174.28 168.41)">UK</text><rect class="cls-1" x="15" y="189.08" width="147.75" height="119.92"/><text class="cls-4" transform="translate(34.93 257.41)"><tspan class="cls-9">w</tspan><tspan x="23.28" y="0">omens</tspan></text><rect class="cls-2" x="163" y="189" width="61" height="60.5"/><rect class="cls-1" x="163" y="249.5" width="61" height="59"/><text class="cls-4" transform="translate(175.58 228.41)">US</text><text class="cls-4" transform="translate(174.28 288.41)">UK</text></svg>